# xmcd CD database file
#
# Track frame offsets:
#	187
#	16132
#	29170
#	44795
#	58577
#	69842
#	84205
#	99692
#	111305
#	130440
#	143872
#	155282
#	169387
#	185270
#	197287
#	212530
#	227837
#	244900
#	260555
#	278105
#
# Disc length: 4021 seconds
#
# Revision: 0
# Processed by: cddbd v1.5.1PL2 Copyright (c) Steve Scherf et al.
# Submitted via: CDex 1.51
#
DISCID=200fb314
DTITLE=三田　明 - 三田　明
DYEAR=1995
DGENRE=J-Pop
TTITLE0=美しい十代
TTITLE1=みんな名もなく貧しいけれど
TTITLE2=友よ歌おう
TTITLE3=若い港
TTITLE4=ごめんねチコちゃん
TTITLE5=高校騎兵隊
TTITLE6=若い二人の心斎橋
TTITLE7=明日は咲こう花咲こう
TTITLE8=泣かせてごめんネ
TTITLE9=僕のそばには君がいる
TTITLE10=若い翼
TTITLE11=美しい恋人たち
TTITLE12=アイビー東京
TTITLE13=恋のアメリアッチ
TTITLE14=恋人ジュリー
TTITLE15=夕子の涙
TTITLE16=数寄屋橋ブルース
TTITLE17=タートル・ルックのいかす奴
TTITLE18=来た道・寄り道・帰り道
TTITLE19=妻を恋うる唄
EXTD=YEAR: 1995.10.27
EXTT0=
EXTT1=
EXTT2=
EXTT3=
EXTT4=
EXTT5=
EXTT6=
EXTT7=
EXTT8=
EXTT9=
EXTT10=
EXTT11=
EXTT12=
EXTT13=
EXTT14=
EXTT15=
EXTT16=
EXTT17=
EXTT18=
EXTT19=
PLAYORDER=
